<!-- 
9 segments exist.
 -->
<!-- 
crossing: 1,5,2,7,4,8
 -->
<svg xmlns="http://www.w3.org/2000/svg" viewBox="0 0 1000 1000"><g><path style="fill:none;stroke:#ffffff;stroke-width:16px;" d="M373,200C387.5,158.33 330.33,58.33 287,50 "></path></g><g><path style="fill:none;stroke:#000000;stroke-width:8px;" d="M373,200C387.5,158.33 330.33,58.33 287,50 "></path></g><g><path style="fill:none;stroke:#ffffff;stroke-width:16px;" d="M113,150C84,200 84,316.67 113,350 "></path></g><g><path style="fill:none;stroke:#000000;stroke-width:8px;" d="M113,150C84,200 84,316.67 113,350 "></path></g><g><path style="fill:none;stroke:#ffffff;stroke-width:16px;" d="M113,350C142,383.33 258,383.33 287,350 "></path></g><g><path style="fill:none;stroke:#000000;stroke-width:8px;" d="M113,350C142,383.33 258,383.33 287,350 "></path></g><g><path style="fill:none;stroke:#ffffff;stroke-width:16px;" d="M287,150C258,100 156.33,41.67 113,50 "></path></g><g><path style="fill:none;stroke:#000000;stroke-width:8px;" d="M287,150C258,100 156.33,41.67 113,50 "></path></g><g><path style="fill:none;stroke:#ffffff;stroke-width:16px;" d="M113,50C69.67,58.33 12.5,158.33 27,200 "></path></g><g><path style="fill:none;stroke:#000000;stroke-width:8px;" d="M113,50C69.67,58.33 12.5,158.33 27,200 "></path></g><g><path style="fill:none;stroke:#ffffff;stroke-width:16px;" d="M200,300C257.67,300 358.5,241.67 373,200 "></path></g><g><path style="fill:none;stroke:#000000;stroke-width:8px;" d="M200,300C257.67,300 358.5,241.67 373,200 "></path></g><g><path style="fill:none;stroke:#ffffff;stroke-width:16px;" d="M287,50C243.67,41.67 142,100 113,150 "></path></g><g><path style="fill:none;stroke:#000000;stroke-width:8px;" d="M287,50C243.67,41.67 142,100 113,150 "></path></g><g><path style="fill:none;stroke:#ffffff;stroke-width:16px;" d="M287,350C316,316.67 316,200 287,150 "></path></g><g><path style="fill:none;stroke:#000000;stroke-width:8px;" d="M287,350C316,316.67 316,200 287,150 "></path></g><g><path style="fill:none;stroke:#ffffff;stroke-width:16px;" d="M27,200C41.5,241.67 142.33,300 200,300 "></path></g><g><path style="fill:none;stroke:#000000;stroke-width:8px;" d="M27,200C41.5,241.67 142.33,300 200,300 "></path></g></svg>
