<!-- 
13 segments exist.
 -->
<!-- 
crossing: 1,9,2,7,5,11,6,10
 -->
<svg xmlns="http://www.w3.org/2000/svg" viewBox="0 0 1000 1000"><g><path style="fill:none;stroke:#ffffff;stroke-width:16px;" d="M550,400C566.67,366.67 575,333.33 550,300 "></path></g><g><path style="fill:none;stroke:#000000;stroke-width:8px;" d="M550,400C566.67,366.67 575,333.33 550,300 "></path></g><g><path style="fill:none;stroke:#ffffff;stroke-width:16px;" d="M400,200C350,200 275,266.67 250,300 "></path></g><g><path style="fill:none;stroke:#000000;stroke-width:8px;" d="M400,200C350,200 275,266.67 250,300 "></path></g><g><path style="fill:none;stroke:#ffffff;stroke-width:16px;" d="M250,300C225,333.33 233.33,366.67 250,400 "></path></g><g><path style="fill:none;stroke:#000000;stroke-width:8px;" d="M250,300C225,333.33 233.33,366.67 250,400 "></path></g><g><path style="fill:none;stroke:#ffffff;stroke-width:16px;" d="M250,400C266.67,433.33 316.67,500 350,500 "></path></g><g><path style="fill:none;stroke:#000000;stroke-width:8px;" d="M250,400C266.67,433.33 316.67,500 350,500 "></path></g><g><path style="fill:none;stroke:#ffffff;stroke-width:16px;" d="M450,400C450,366.67 366.67,341.67 350,300 "></path></g><g><path style="fill:none;stroke:#000000;stroke-width:8px;" d="M450,400C450,366.67 366.67,341.67 350,300 "></path></g><g><path style="fill:none;stroke:#ffffff;stroke-width:16px;" d="M450,150C466.67,175 466.67,258.33 450,300 "></path></g><g><path style="fill:none;stroke:#000000;stroke-width:8px;" d="M450,150C466.67,175 466.67,258.33 450,300 "></path></g><g><path style="fill:none;stroke:#ffffff;stroke-width:16px;" d="M350,400C350,433.33 416.67,500 450,500 "></path></g><g><path style="fill:none;stroke:#000000;stroke-width:8px;" d="M350,400C350,433.33 416.67,500 450,500 "></path></g><g><path style="fill:none;stroke:#ffffff;stroke-width:16px;" d="M450,500C483.33,500 533.33,433.33 550,400 "></path></g><g><path style="fill:none;stroke:#000000;stroke-width:8px;" d="M450,500C483.33,500 533.33,433.33 550,400 "></path></g><g><path style="fill:none;stroke:#ffffff;stroke-width:16px;" d="M550,300C525,266.67 450,200 400,200 "></path></g><g><path style="fill:none;stroke:#000000;stroke-width:8px;" d="M550,300C525,266.67 450,200 400,200 "></path></g><g><path style="fill:none;stroke:#ffffff;stroke-width:16px;" d="M350,500C383.33,500 450,433.33 450,400 "></path></g><g><path style="fill:none;stroke:#000000;stroke-width:8px;" d="M350,500C383.33,500 450,433.33 450,400 "></path></g><g><path style="fill:none;stroke:#ffffff;stroke-width:16px;" d="M350,300C333.33,258.33 333.33,175 350,150 "></path></g><g><path style="fill:none;stroke:#000000;stroke-width:8px;" d="M350,300C333.33,258.33 333.33,175 350,150 "></path></g><g><path style="fill:none;stroke:#ffffff;stroke-width:16px;" d="M350,150C366.67,125 433.33,125 450,150 "></path></g><g><path style="fill:none;stroke:#000000;stroke-width:8px;" d="M350,150C366.67,125 433.33,125 450,150 "></path></g><g><path style="fill:none;stroke:#ffffff;stroke-width:16px;" d="M450,300C433.33,341.67 350,366.67 350,400 "></path></g><g><path style="fill:none;stroke:#000000;stroke-width:8px;" d="M450,300C433.33,341.67 350,366.67 350,400 "></path></g></svg>
